<svg width="134" height="150" viewBox="0 0 134 150" fill="none" xmlns="http://www.w3.org/2000/svg">
<g filter="url(#filter0_d_13_36)">
<path d="M4.5 125V141H30C50.4225 138.31 57.2301 131.643 61.5 111V0.5H12V15.5H44V109.5C42.5879 120.482 38.6902 123.814 26.5 125H4.5Z" fill="url(#paint0_linear_13_36)"/>
<path d="M4.5 125V141H30C50.4225 138.31 57.2301 131.643 61.5 111V0.5H12V15.5H44V109.5C42.5879 120.482 38.6902 123.814 26.5 125H4.5Z" stroke="black"/>
</g>
<path d="M61.5 141L62.5 0.5H86H109.5C124.266 3.83533 129.395 9.57303 133.5 26V59.5C129.783 77.3434 124.236 83.748 106 86.5H78.5V141H61.5Z" fill="url(#paint1_linear_13_36)" stroke="black" mask="url(#pHoleMask)"/>
<path d="M105.541 16.0352C107.006 16.0819 108.268 16.1697 109.349 16.3477C110.792 16.5853 111.957 16.9898 112.867 17.71C114.698 19.1589 115.305 21.7305 115.499 25.9775L115.5 25.9883V62.0938L115.466 62.1816C114.453 64.7795 113.677 66.4881 112.33 67.6602C110.979 68.8363 109.115 69.4213 106.093 69.9912L106.047 70H79V16H104.008L105.541 16.0352Z" fill="none" stroke="black"/>

<defs>
<mask id="pHoleMask">
<rect width="134" height="150" fill="white"/>
<path d="M105.541 16.0352C107.006 16.0819 108.268 16.1697 109.349 16.3477C110.792 16.5853 111.957 16.9898 112.867 17.71C114.698 19.1589 115.305 21.7305 115.499 25.9775L115.5 25.9883V62.0938L115.466 62.1816C114.453 64.7795 113.677 66.4881 112.33 67.6602C110.979 68.8363 109.115 69.4213 106.093 69.9912L106.047 70H79V16H104.008L105.541 16.0352Z" fill="black"/>
</mask>
<filter id="filter0_d_13_36" x="0" y="0" width="66" height="149.5" filterUnits="userSpaceOnUse" color-interpolation-filters="sRGB">
<feFlood flood-opacity="0" result="BackgroundImageFix"/>
<feColorMatrix in="SourceAlpha" type="matrix" values="0 0 0 0 0 0 0 0 0 0 0 0 0 0 0 0 0 0 127 0" result="hardAlpha"/>
<feOffset dy="4"/>
<feGaussianBlur stdDeviation="2"/>
<feComposite in2="hardAlpha" operator="out"/>
<feColorMatrix type="matrix" values="0 0 0 0 0 0 0 0 0 0 0 0 0 0 0 0 0 0 0.25 0"/>
<feBlend mode="normal" in2="BackgroundImageFix" result="effect1_dropShadow_13_36"/>
<feBlend mode="normal" in="SourceGraphic" in2="effect1_dropShadow_13_36" result="shape"/>
</filter>
<linearGradient id="paint0_linear_13_36" x1="33" y1="0.5" x2="33" y2="141" gradientUnits="userSpaceOnUse">
<stop stop-color="#1000ED"/>
<stop offset="1" stop-color="#090087"/>
</linearGradient>
<linearGradient id="paint1_linear_13_36" x1="97.5" y1="0.5" x2="97.5" y2="141" gradientUnits="userSpaceOnUse">
<stop stop-color="#82C3FF"/>
<stop offset="1" stop-color="#4E7599"/>
</linearGradient>
</defs>
</svg>
